<?xml version="1.0" encoding="UTF-8" standalone="no"?><!DOCTYPE svg PUBLIC "-//W3C//DTD SVG 1.1//EN" "http://www.w3.org/Graphics/SVG/1.1/DTD/svg11.dtd"><svg width="100%" height="100%" viewBox="0 0 16 16" version="1.1" xmlns="http://www.w3.org/2000/svg" xmlns:xlink="http://www.w3.org/1999/xlink" xml:space="preserve" xmlns:serif="http://www.serif.com/" style="fill-rule:evenodd;clip-rule:evenodd;stroke-linejoin:round;stroke-miterlimit:2;"><path d="M8.301,10.695c0,0.513 0.074,0.858 0.221,1.033c0.147,0.176 0.415,0.263 0.803,0.263c0.402,0 0.917,-0.203 1.547,-0.608l0.402,0.669c-1.178,0.986 -2.149,1.479 -2.913,1.479c-0.763,0 -1.366,-0.182 -1.808,-0.547c-0.442,-0.378 -0.663,-1.04 -0.663,-1.986l0,-5.309l-1.004,0l-0.161,-0.75l1.165,-0.365l0,-0.993l2.41,-1.114l0,2.229l2.37,-0.182l-0.221,1.317l-2.149,-0.081l0,4.944Z" style="fill-rule:nonzero;"/></svg>